<?xml version="1.0" encoding="UTF-8"?>
<svg version="1.1" xmlns="http://www.w3.org/2000/svg" width="512" height="512">
<path d="M0 0 C168.96 0 337.92 0 512 0 C512 168.96 512 337.92 512 512 C343.04 512 174.08 512 0 512 C0 343.04 0 174.08 0 0 Z " fill="#0D0D0B" transform="translate(0,0)"/>
<path d="M0 0 C0.80824219 0.70640625 1.61648438 1.4128125 2.44921875 2.140625 C3.22652344 2.78515625 4.00382813 3.4296875 4.8046875 4.09375 C10.81153452 9.18044317 15.65162998 14.91834977 20.44921875 21.140625 C21.11824219 21.98238281 21.78726563 22.82414062 22.4765625 23.69140625 C44.25649084 52.11313452 50.89452649 87.49794697 46.82421875 122.578125 C46.42198559 124.77663226 45.957545 126.964199 45.44921875 129.140625 C45.19060059 130.26065918 45.19060059 130.26065918 44.92675781 131.40332031 C39.59369299 153.77767272 29.8048596 172.31078796 15.44921875 190.140625 C16.73977611 192.89030231 18.16006171 195.21935802 20.05078125 197.59375 C20.540625 198.2125 21.03046875 198.83125 21.53515625 199.46875 C22.04304687 200.10296875 22.5509375 200.7371875 23.07421875 201.390625 C23.58984375 202.0403125 24.10546875 202.69 24.63671875 203.359375 C25.90436054 204.95566467 27.17636236 206.54849026 28.44921875 208.140625 C26.88387973 212.34439709 23.75835541 214.70095417 20.38671875 217.453125 C19.80833252 217.93370361 19.22994629 218.41428223 18.6340332 218.90942383 C13.98472892 222.75390463 9.25920735 226.49895404 4.44921875 230.140625 C0.75426794 226.55219529 -2.59836342 222.80890629 -5.86328125 218.828125 C-6.31767578 218.27833984 -6.77207031 217.72855469 -7.24023438 217.16210938 C-8.34603977 215.82350284 -9.44874064 214.48233269 -10.55078125 213.140625 C-14.14896436 214.48477386 -17.51550817 216.12676478 -20.91650391 217.9074707 C-51.42378133 233.78385821 -89.01939787 237.36571834 -122.02490234 227.39306641 C-157.49164715 215.99529026 -186.19569226 193.67209123 -204.55078125 161.140625 C-205.15664062 160.07714844 -205.7625 159.01367188 -206.38671875 157.91796875 C-222.66867739 127.52260929 -224.16324561 93.20154412 -214.78808594 60.47851562 C-204.54299473 27.35916418 -181.60461971 -0.20511834 -151.17578125 -16.671875 C-142.93822938 -20.96731123 -134.40002303 -24.08489124 -125.55078125 -26.859375 C-124.58914062 -27.17648438 -123.6275 -27.49359375 -122.63671875 -27.8203125 C-81.0670125 -40.50472438 -32.49179328 -27.7807261 0 0 Z " fill="#0D0D0B" transform="translate(318.55078125,109.859375)"/>
<path d="M0 0 C0.80824219 0.70640625 1.61648438 1.4128125 2.44921875 2.140625 C3.22652344 2.78515625 4.00382813 3.4296875 4.8046875 4.09375 C10.81153452 9.18044317 15.65162998 14.91834977 20.44921875 21.140625 C21.11824219 21.98238281 21.78726563 22.82414062 22.4765625 23.69140625 C44.25649084 52.11313452 50.89452649 87.49794697 46.82421875 122.578125 C46.42198559 124.77663226 45.957545 126.964199 45.44921875 129.140625 C45.19060059 130.26065918 45.19060059 130.26065918 44.92675781 131.40332031 C39.59369299 153.77767272 29.8048596 172.31078796 15.44921875 190.140625 C16.73977611 192.89030231 18.16006171 195.21935802 20.05078125 197.59375 C20.540625 198.2125 21.03046875 198.83125 21.53515625 199.46875 C22.04304687 200.10296875 22.5509375 200.7371875 23.07421875 201.390625 C23.58984375 202.0403125 24.10546875 202.69 24.63671875 203.359375 C25.90436054 204.95566467 27.17636236 206.54849026 28.44921875 208.140625 C26.88387973 212.34439709 23.75835541 214.70095417 20.38671875 217.453125 C19.80833252 217.93370361 19.22994629 218.41428223 18.6340332 218.90942383 C13.98472892 222.75390463 9.25920735 226.49895404 4.44921875 230.140625 C0.75426794 226.55219529 -2.59836342 222.80890629 -5.86328125 218.828125 C-6.31767578 218.27833984 -6.77207031 217.72855469 -7.24023438 217.16210938 C-8.34603977 215.82350284 -9.44874064 214.48233269 -10.55078125 213.140625 C-14.14896436 214.48477386 -17.51550817 216.12676478 -20.91650391 217.9074707 C-51.42378133 233.78385821 -89.01939787 237.36571834 -122.02490234 227.39306641 C-157.49164715 215.99529026 -186.19569226 193.67209123 -204.55078125 161.140625 C-205.15664062 160.07714844 -205.7625 159.01367188 -206.38671875 157.91796875 C-222.66867739 127.52260929 -224.16324561 93.20154412 -214.78808594 60.47851562 C-204.54299473 27.35916418 -181.60461971 -0.20511834 -151.17578125 -16.671875 C-142.93822938 -20.96731123 -134.40002303 -24.08489124 -125.55078125 -26.859375 C-124.58914062 -27.17648438 -123.6275 -27.49359375 -122.63671875 -27.8203125 C-81.0670125 -40.50472438 -32.49179328 -27.7807261 0 0 Z M-120.55078125 -5.859375 C-121.1746875 -5.64506836 -121.79859375 -5.43076172 -122.44140625 -5.20996094 C-137.016675 -0.12194791 -149.99276184 6.87695792 -161.55078125 17.140625 C-162.30617187 17.75292969 -163.0615625 18.36523438 -163.83984375 18.99609375 C-182.90521529 34.7940783 -196.16546467 60.52618791 -198.55078125 85.140625 C-199.27322701 100.83681782 -199.56574317 116.12851676 -194.55078125 131.140625 C-193.99003906 132.84992188 -193.99003906 132.84992188 -193.41796875 134.59375 C-182.81965804 164.21286999 -160.37861345 187.46968636 -132.17578125 200.890625 C-108.20623442 211.85089863 -80.14985456 215.29968788 -54.55078125 208.140625 C-53.48601562 207.87378906 -52.42125 207.60695313 -51.32421875 207.33203125 C-24.30597836 199.93652749 -1.54540184 181.19073032 12.5703125 157.23828125 C26.61258539 132.40194806 31.33648993 100.80830859 23.71484375 73.15234375 C14.50784139 42.95191457 -4.8537256 18.38955954 -32.52050781 3.21337891 C-39.34214138 -0.39102921 -46.24834791 -3.3748863 -53.55078125 -5.859375 C-54.72511719 -6.27316406 -55.89945313 -6.68695313 -57.109375 -7.11328125 C-76.25977373 -12.73883339 -101.73932652 -12.50113862 -120.55078125 -5.859375 Z " fill="#FBFBFB" transform="translate(318.55078125,109.859375)"/>
<path d="M0 0 C3.73372255 2.41495617 6.32452559 5.4037338 9.0625 8.875 C12.62827006 13.32479625 16.27271491 17.68472389 20 22 C24.32235175 27.015367 28.55480953 32.09177461 32.73046875 37.23046875 C35.2492894 40.3042103 37.80539086 43.343717 40.375 46.375 C40.83656494 46.91979004 41.29812988 47.46458008 41.77368164 48.02587891 C44.09557105 50.76344256 46.42335462 53.49580371 48.7578125 56.22265625 C53.90219858 62.24642457 58.87906675 68.36178167 63.72998047 74.62426758 C67.21748705 79.09012777 70.88423238 83.3701757 74.625 87.625 C93.75506002 109.4661852 93.75506002 109.4661852 93.35546875 120.59765625 C92.41366299 126.96260726 89.7003482 133.55372467 85 138 C77.0406682 143.07950084 70.50120007 145.02871874 61 144 C46.98563582 139.34784881 37.1507456 124.79042781 28.1796875 113.6484375 C25.31289909 110.16513546 22.27720087 106.85237056 19.23828125 103.51953125 C16.97152842 100.96795083 14.82459913 98.34828468 12.6875 95.6875 C9.27577674 91.46601345 5.70682034 87.45926658 2 83.5 C-2.404165 78.79188559 -6.55986565 73.96018063 -10.6015625 68.93359375 C-13.4411284 65.46044393 -16.36752119 62.07128584 -19.3125 58.6875 C-19.85874023 58.05884033 -20.40498047 57.43018066 -20.96777344 56.7824707 C-23.21663577 54.19561953 -25.46714463 51.61022971 -27.72167969 49.02832031 C-29.38080181 47.12635356 -31.03456764 45.21984614 -32.6875 43.3125 C-33.1925708 42.73653076 -33.6976416 42.16056152 -34.21801758 41.56713867 C-37.3216128 37.97645365 -39.64479566 35.2367323 -40.39453125 30.515625 C-39.84499414 27.01164581 -38.37881139 26.0101993 -35.6875 23.75 C-34.7696875 22.97011719 -33.851875 22.19023437 -32.90625 21.38671875 C-31.9471875 20.59910156 -30.988125 19.81148438 -30 19 C-29.1234375 18.26394531 -28.246875 17.52789062 -27.34375 16.76953125 C-24.58798779 14.47981706 -21.79700845 12.23909453 -19 10 C-17.87481904 9.07053153 -16.74982563 8.14083596 -15.625 7.2109375 C-14.47990784 6.28554044 -13.33408727 5.36104393 -12.1875 4.4375 C-11.66051514 3.99543213 -11.13353027 3.55336426 -10.59057617 3.09790039 C-6.98027023 0.23596832 -4.57703382 -0.82496604 0 0 Z " fill="#FCFCFC" transform="translate(362,324)"/>
<path d="M0 0 C1.96223511 -0.01891296 1.96223511 -0.01891296 3.96411133 -0.03820801 C5.38884012 -0.0310482 6.81356399 -0.02284422 8.23828125 -0.01367188 C9.70272072 -0.01636736 11.16715844 -0.02025026 12.6315918 -0.02526855 C15.69825305 -0.03116106 18.76444774 -0.02260934 21.83105469 -0.00390625 C25.75891761 0.01888402 29.68568731 0.00575949 33.61351013 -0.01819611 C36.63676162 -0.03266128 39.65975458 -0.02804499 42.68301392 -0.01768494 C44.13107432 -0.0150196 45.57915831 -0.0182807 47.02719116 -0.02760315 C49.05197695 -0.03777847 51.07684519 -0.0195152 53.1015625 0 C54.82886597 0.00477356 54.82886597 0.00477356 56.59106445 0.00964355 C60.1999074 0.62897852 61.38960312 1.60325232 63.55078125 4.51757812 C64.28023738 10.45743521 64.28023738 10.45743521 62.37890625 13.22070312 C59.81578636 15.03898476 57.96877548 14.8146838 54.86328125 14.70507812 C53.86941406 14.67800781 52.87554687 14.6509375 51.8515625 14.62304688 C51.09230469 14.58824219 50.33304687 14.5534375 49.55078125 14.51757812 C50.10059684 32.35909396 54.58796605 48.55332948 65.61328125 62.83007812 C68.90653699 65.84305678 71.25440834 66.54481445 75.55078125 67.51757812 C77.48828125 68.76757812 77.48828125 68.76757812 78.55078125 70.51757812 C79.09871177 73.5996873 79.17100476 75.56786087 77.42578125 78.24023438 C76.19518506 79.71904741 74.87758441 81.1244348 73.55078125 82.51757812 C74.47890625 83.11570312 75.40703125 83.71382813 76.36328125 84.33007812 C81.35078125 87.75287224 81.35078125 87.75287224 82.55078125 89.51757812 C82.5703125 91.86132812 82.5703125 91.86132812 81.55078125 94.51757812 C79.10663025 96.15005211 76.9422948 97.36584618 74.30078125 98.58007812 C73.57785889 98.92441895 72.85493652 99.26875977 72.11010742 99.62353516 C46.55247595 111.49289167 16.81696668 111.68679865 -9.55371094 102.24707031 C-15.95233898 99.78453804 -22.05969014 96.77379464 -27.44921875 92.51757812 C-27.15180328 88.94859244 -26.73449088 87.77359157 -24.01171875 85.33007812 C-23.16609375 84.73195313 -22.32046875 84.13382812 -21.44921875 83.51757812 C-20.45921875 82.52757812 -20.45921875 82.52757812 -19.44921875 81.51757812 C-20.27421875 81.00195312 -21.09921875 80.48632812 -21.94921875 79.95507812 C-24.44921875 77.51757812 -24.44921875 77.51757812 -25.07421875 74.01757812 C-24.44921875 70.51757812 -24.44921875 70.51757812 -22.26171875 68.08007812 C-19.29765751 66.43337744 -17.77273304 66.13774792 -14.44921875 66.51757812 C-14.18753906 65.95039063 -13.92585937 65.38320313 -13.65625 64.79882812 C-12.35140665 62.33271642 -10.81258381 60.24711036 -9.13671875 58.01757812 C-0.03923458 45.08061518 2.72497444 30.06552698 3.55078125 14.51757812 C2.41189453 14.56978516 2.41189453 14.56978516 1.25 14.62304688 C0.25613281 14.65011719 -0.73773438 14.6771875 -1.76171875 14.70507812 C-2.74785156 14.73988281 -3.73398438 14.7746875 -4.75 14.81054688 C-7.44921875 14.51757812 -7.44921875 14.51757812 -9.27734375 13.22070312 C-11.26756048 10.32825481 -10.86490458 7.90244843 -10.44921875 4.51757812 C-7.37912439 0.37758842 -5.02675838 0.0138919 0 0 Z " fill="#C18F40" transform="translate(204.44921875,204.482421875)"/>
<path d="M0 0 C9.22476487 6.61244208 15.51120028 15.08865727 17.375 26.375 C18.33563688 36.48530941 16.14073991 44.92218785 10.1875 53.1875 C3.95390661 60.61730534 -4.2842036 65.3659505 -13.9375 66.69287109 C-27.19694397 67.56238896 -37.61118803 65.87529198 -48.0625 57.125 C-55.0216887 50.36687935 -58.80815209 43.0896555 -59.625 33.375 C-59.75851085 21.72617838 -56.1512198 13.03647335 -48.125 4.640625 C-34.65039861 -7.57073251 -15.59429704 -9.56379375 0 0 Z " fill="#C28F40" transform="translate(251.625,136.625)"/>
<path d="M0 0 C2 1 2 1 2.96484375 3.8359375 C3.61176753 6.18980475 4.25760612 8.54397052 4.90234375 10.8984375 C6.19342154 14.56445516 6.19342154 14.56445516 9 17 C11.94780466 18.22413897 11.94780466 18.22413897 15.1875 19.1875 C16.27417969 19.53167969 17.36085937 19.87585938 18.48046875 20.23046875 C19.72763672 20.61138672 19.72763672 20.61138672 21 21 C20.505 22.485 20.505 22.485 20 24 C17.41796875 24.8515625 17.41796875 24.8515625 14.1875 25.625 C9.69746043 26.9474383 9.69746043 26.9474383 6.38671875 30.046875 C5.38745756 32.34633319 4.64403546 34.57859396 4 37 C3.5875 38.175625 3.175 39.35125 2.75 40.5625 C2.5025 41.366875 2.255 42.17125 2 43 C1.01 43 0.02 43 -1 43 C-1.17015625 42.18015625 -1.3403125 41.3603125 -1.515625 40.515625 C-1.75796875 39.43796875 -2.0003125 38.3603125 -2.25 37.25 C-2.48203125 36.18265625 -2.7140625 35.1153125 -2.953125 34.015625 C-4.1396841 30.5976264 -5.14228971 29.19221611 -8 27 C-11.0137392 25.67502081 -11.0137392 25.67502081 -14.25 24.75 C-15.86648437 24.24726562 -15.86648437 24.24726562 -17.515625 23.734375 C-18.33546875 23.49203125 -19.1553125 23.2496875 -20 23 C-20 22.34 -20 21.68 -20 21 C-19.16855469 20.74605469 -18.33710937 20.49210937 -17.48046875 20.23046875 C-16.39378906 19.88628906 -15.30710937 19.54210937 -14.1875 19.1875 C-13.10855469 18.85105469 -12.02960938 18.51460937 -10.91796875 18.16796875 C-8.04620692 17.01849514 -6.74874102 16.49428578 -5 14 C-3.807055 10.8551103 -3.807055 10.8551103 -2.875 7.375 C-1.08333333 1.08333333 -1.08333333 1.08333333 0 0 Z " fill="#C29040" transform="translate(141,35)"/>
<path d="M0 0 C2.26822063 2.26822063 2.44209223 3.39083332 3.1875 6.4375 C4.41898778 10.35187186 4.67044145 10.80825684 8.4375 13 C9.613125 13.33 10.78875 13.66 12 14 C12.804375 14.226875 13.60875 14.45375 14.4375 14.6875 C15.2109375 14.8421875 15.2109375 14.8421875 16 15 C15.67 15.99 15.34 16.98 15 18 C11.7 18.66 8.4 19.32 5 20 C4.01 23.3 3.02 26.6 2 30 C1.01 30 0.02 30 -1 30 C-1.37125 28.741875 -1.7425 27.48375 -2.125 26.1875 C-3.36607946 22.86819785 -3.77484332 22.14684132 -6.875 20.125 C-7.90625 19.75375 -8.9375 19.3825 -10 19 C-10.94875 18.608125 -11.8975 18.21625 -12.875 17.8125 C-13.57625 17.544375 -14.2775 17.27625 -15 17 C-15 16.34 -15 15.68 -15 15 C-14.31292969 14.87625 -13.62585938 14.7525 -12.91796875 14.625 C-7.60678977 13.58453401 -7.60678977 13.58453401 -3.73828125 10.16015625 C-3.02039227 8.12043993 -2.48714139 6.10529801 -2 4 C-1.36039986 2.6534734 -0.710001 1.31077107 0 0 Z " fill="#C08E40" transform="translate(84,74)"/>
<path d="M0 0 C1.32 0.33 2.64 0.66 4 1 C4.77289321 12.90828055 2.62789485 26.38219027 -3 37 C-3.66 37.66 -4.32 38.32 -5 39 C-7.125 38.625 -7.125 38.625 -9 38 C-8.42621803 33.96578035 -7.50638762 30.4281455 -6.0625 26.625 C-4.08030652 20.91456537 -3.23711352 15.41711561 -2.68383789 9.43212891 C-2.33706816 5.87961662 -1.89096735 3.06305455 0 0 Z " fill="#DBB470" transform="translate(218,222)"/>
<path d="M0 0 C1 1 1 1 1.375 3.25 C0.84340726 7.14834677 -1.13395435 8.39450395 -4 11 C-6.28091464 13.69562639 -8.15059054 16.25746125 -9.9375 19.3125 C-12 22 -12 22 -14.75 22.375 C-15.4925 22.25125 -16.235 22.1275 -17 22 C-18.46650366 19.06699268 -18.36440295 17.27962656 -18 14 C-14.57883501 6.46458918 -8.7814423 -0.45033037 0 0 Z " fill="#DBB571" transform="translate(221,142)"/>
<path d="M0 0 C0.66 0 1.32 0 2 0 C2.33 1.98 2.66 3.96 3 6 C4.98 6.66 6.96 7.32 9 8 C9 8.66 9 9.32 9 10 C8.21625 10.226875 7.4325 10.45375 6.625 10.6875 C3.78125 11.78125 3.78125 11.78125 2.6875 14.625 C2.460625 15.40875 2.23375 16.1925 2 17 C1.34 17 0.68 17 0 17 C-0.226875 16.236875 -0.45375 15.47375 -0.6875 14.6875 C-2.26731682 11.45263699 -3.83282717 10.58358642 -7 9 C-6.67 8.34 -6.34 7.68 -6 7 C-3.4375 6.375 -3.4375 6.375 -1 6 C-0.67 4.02 -0.34 2.04 0 0 Z " fill="#C09041" transform="translate(104,112)"/>
<path d="M0 0 C7.92 0 15.84 0 24 0 C23.67 0.99 23.34 1.98 23 3 C15.41 3 7.82 3 0 3 C0 2.01 0 1.02 0 0 Z " fill="#DEB673" transform="translate(200,285)"/>
<path d="M0 0 C2.33837891 -0.34057617 2.33837891 -0.34057617 5.2265625 -0.29296875 C6.7734375 -0.2784668 6.7734375 -0.2784668 8.3515625 -0.26367188 C9.43179688 -0.23853516 10.51203125 -0.21339844 11.625 -0.1875 C12.71296875 -0.17396484 13.8009375 -0.16042969 14.921875 -0.14648438 C17.61507409 -0.11104754 20.30729374 -0.06164331 23 0 C23.33 0.66 23.66 1.32 24 2 C21.39048764 3.30475618 19.47298715 3.11301572 16.5546875 3.09765625 C14.94013672 3.09282227 14.94013672 3.09282227 13.29296875 3.08789062 C12.16503906 3.07951172 11.03710938 3.07113281 9.875 3.0625 C8.73933594 3.05798828 7.60367188 3.05347656 6.43359375 3.04882812 C3.62234362 3.03701615 0.8111977 3.02054507 -2 3 C-1.34 2.01 -0.68 1.02 0 0 Z " fill="#150F06" transform="translate(219,202)"/>
<path d="M0 0 C7.92 0 15.84 0 24 0 C23.67 0.99 23.34 1.98 23 3 C22.4337793 2.84152588 21.86755859 2.68305176 21.28417969 2.51977539 C18.9654655 1.99214152 16.82641603 1.795844 14.453125 1.68359375 C13.60878906 1.64169922 12.76445312 1.59980469 11.89453125 1.55664062 C11.02183594 1.51732422 10.14914063 1.47800781 9.25 1.4375 C7.91775391 1.37272461 7.91775391 1.37272461 6.55859375 1.30664062 C4.37254037 1.20086385 2.18637911 1.09877454 0 1 C0 0.67 0 0.34 0 0 Z " fill="#DBB067" transform="translate(200,285)"/>
<path d="M0 0 C-0.66 0.66 -1.32 1.32 -2 2 C-5.0390625 1.9765625 -5.0390625 1.9765625 -8.625 1.625 C-9.81351563 1.51414063 -11.00203125 1.40328125 -12.2265625 1.2890625 C-13.14179688 1.19367188 -14.05703125 1.09828125 -15 1 C-15 0.67 -15 0.34 -15 0 C-13.06325815 -0.19517554 -11.12555991 -0.38087873 -9.1875 -0.5625 C-8.10855469 -0.66691406 -7.02960938 -0.77132812 -5.91796875 -0.87890625 C-3 -1 -3 -1 0 0 Z " fill="#2A1D0B" transform="translate(243,203)"/>
<path d="M0 0 C0 0.66 0 1.32 0 2 C-2.2747813 3.38111722 -3.50171361 4.05694702 -6.1875 3.75 C-8 3 -8 3 -9 1 C-5.846632 0.29925156 -3.27275026 0 0 0 Z " fill="#B68439" transform="translate(237,131)"/>
<path d="M0 0 C-1.98 1.32 -3.96 2.64 -6 4 C-6.66 3.34 -7.32 2.68 -8 2 C-8 1.34 -8 0.68 -8 0 C-4.94736336 -0.98120464 -3.05263664 -0.98120464 0 0 Z " fill="#AE8038" transform="translate(282,283)"/>
<path d="M0 0 C2.125 0.9375 2.125 0.9375 4 2 C4 2.66 4 3.32 4 4 C3.01 4.33 2.02 4.66 1 5 C0.01 3.68 -0.98 2.36 -2 1 C-1.34 0.67 -0.68 0.34 0 0 Z " fill="#C79845" transform="translate(204,190)"/>
</svg>
